solid ASCII
  facet normal 1.000000e+00 0.000000e+00 0.000000e+00
    outer loop
      vertex   5.360000e+01 3.760000e+01 0.000000e+00
      vertex   5.360000e+01 -6.000000e-01 0.000000e+00
      vertex   5.360000e+01 3.760000e+01 -1.100000e+00
    endloop
  endfacet
  facet normal 1.000000e+00 0.000000e+00 0.000000e+00
    outer loop
      vertex   5.360000e+01 3.760000e+01 -1.100000e+00
      vertex   5.360000e+01 -6.000000e-01 0.000000e+00
      vertex   5.360000e+01 -6.000000e-01 -1.100000e+00
    endloop
  endfacet
  facet normal -0.000000e+00 1.000000e+00 0.000000e+00
    outer loop
      vertex   -6.000000e-01 3.760000e+01 0.000000e+00
      vertex   5.360000e+01 3.760000e+01 0.000000e+00
      vertex   -6.000000e-01 3.760000e+01 -1.100000e+00
    endloop
  endfacet
  facet normal 0.000000e+00 1.000000e+00 0.000000e+00
    outer loop
      vertex   -6.000000e-01 3.760000e+01 -1.100000e+00
      vertex   5.360000e+01 3.760000e+01 0.000000e+00
      vertex   5.360000e+01 3.760000e+01 -1.100000e+00
    endloop
  endfacet
  facet normal -1.000000e+00 -1.133474e-16 -0.000000e+00
    outer loop
      vertex   -6.000000e-01 -6.000000e-01 0.000000e+00
      vertex   -6.000000e-01 3.760000e+01 0.000000e+00
      vertex   -6.000000e-01 -6.000000e-01 -1.100000e+00
    endloop
  endfacet
  facet normal -1.000000e+00 -1.133474e-16 0.000000e+00
    outer loop
      vertex   -6.000000e-01 -6.000000e-01 -1.100000e+00
      vertex   -6.000000e-01 3.760000e+01 0.000000e+00
      vertex   -6.000000e-01 3.760000e+01 -1.100000e+00
    endloop
  endfacet
  facet normal -2.048382e-18 -1.000000e+00 -0.000000e+00
    outer loop
      vertex   5.360000e+01 -6.000000e-01 0.000000e+00
      vertex   -6.000000e-01 -6.000000e-01 0.000000e+00
      vertex   5.360000e+01 -6.000000e-01 -1.100000e+00
    endloop
  endfacet
  facet normal -2.048382e-18 -1.000000e+00 0.000000e+00
    outer loop
      vertex   5.360000e+01 -6.000000e-01 -1.100000e+00
      vertex   -6.000000e-01 -6.000000e-01 0.000000e+00
      vertex   -6.000000e-01 -6.000000e-01 -1.100000e+00
    endloop
  endfacet
  facet normal 0.000000e+00 0.000000e+00 -1.000000e+00
    outer loop
      vertex   5.360000e+01 -6.000000e-01 -1.100000e+00
      vertex   -6.000000e-01 -6.000000e-01 -1.100000e+00
      vertex   5.360000e+01 3.760000e+01 -1.100000e+00
    endloop
  endfacet
  facet normal -0.000000e+00 0.000000e+00 -1.000000e+00
    outer loop
      vertex   5.360000e+01 3.760000e+01 -1.100000e+00
      vertex   -6.000000e-01 -6.000000e-01 -1.100000e+00
      vertex   -6.000000e-01 3.760000e+01 -1.100000e+00
    endloop
  endfacet
  facet normal -0.000000e+00 -0.000000e+00 1.000000e+00
    outer loop
      vertex   -6.000000e-01 -6.000000e-01 0.000000e+00
      vertex   5.360000e+01 -6.000000e-01 0.000000e+00
      vertex   -6.000000e-01 3.760000e+01 0.000000e+00
    endloop
  endfacet
  facet normal -0.000000e+00 0.000000e+00 1.000000e+00
    outer loop
      vertex   -6.000000e-01 3.760000e+01 0.000000e+00
      vertex   5.360000e+01 -6.000000e-01 0.000000e+00
      vertex   5.360000e+01 3.760000e+01 0.000000e+00
    endloop
  endfacet
endsolid
